<?xml version="1.0" standalone="no"?>
<!DOCTYPE svg PUBLIC "-//W3C//DTD SVG 20010904//EN"
 "http://www.w3.org/TR/2001/REC-SVG-20010904/DTD/svg10.dtd">
<svg version="1.0" xmlns="http://www.w3.org/2000/svg"
 width="626.000000pt" height="398.000000pt" viewBox="0 0 626.000000 398.000000"
 preserveAspectRatio="xMidYMid meet">

<g transform="translate(0.000000,398.000000) scale(0.100000,-0.100000)"
fill="#000000" stroke="none">
<path d="M2385 2850 c-230 -27 -391 -59 -510 -101 -36 -13 -97 -23 -154 -27
l-95 -5 -32 38 -32 39 -138 -42 c-76 -24 -140 -45 -143 -47 -8 -8 10 -21 74
-54 53 -28 56 -31 30 -31 -20 0 -44 12 -70 35 -43 37 -75 45 -75 19 0 -11 -6
-15 -19 -11 -11 2 -25 -3 -35 -14 -9 -11 -14 -20 -11 -20 3 -1 9 -2 14 -3 5 0
13 -4 17 -8 11 -12 56 -10 49 2 -3 6 -1 10 4 10 6 0 16 -9 23 -20 7 -11 18
-20 25 -20 7 0 13 -7 13 -16 0 -10 6 -14 15 -10 11 4 15 -2 15 -24 0 -25 5
-31 33 -39 28 -8 23 -9 -38 -11 -89 -2 -60 -16 52 -25 43 -4 96 -10 118 -14
37 -7 33 -8 -40 -15 -44 -4 -85 -12 -92 -18 -10 -8 -12 -7 -7 6 3 9 0 18 -8
21 -29 11 -193 21 -199 12 -4 -5 -33 -8 -65 -6 -33 2 -64 1 -69 -3 -6 -3 -78
-16 -160 -28 -202 -28 -367 -74 -348 -95 5 -4 -1 -5 -12 -1 -33 13 -125 25
-139 20 -9 -3 -20 9 -32 35 -13 29 -24 41 -39 41 -58 0 -305 -90 -305 -111 0
-28 197 -119 256 -119 23 0 54 -4 68 -10 18 -6 26 -6 26 1 0 6 5 7 12 2 7 -4
75 -8 151 -9 l138 0 -31 19 c-16 10 -27 23 -24 29 4 6 10 5 15 -3 5 -8 9 -10
9 -5 0 5 9 1 20 -9 23 -21 39 -13 20 10 -11 14 -7 15 39 14 28 -1 54 -6 57
-11 3 -4 26 -8 52 -8 52 0 122 -15 277 -59 39 -11 74 -21 78 -21 5 0 5 -4 2
-10 -3 -5 -2 -10 3 -10 9 0 12 -11 15 -59 1 -16 8 -34 16 -41 12 -11 13 -8 8
26 -6 37 -6 38 5 9 6 -16 15 -36 21 -43 5 -7 7 -15 3 -19 -3 -3 -6 -1 -6 5 0
6 -6 9 -14 6 -8 -3 -61 4 -118 15 -89 18 -133 21 -304 19 -109 -2 -262 0 -340
4 -77 3 -147 3 -154 -2 -7 -4 -30 -2 -52 6 -21 7 -38 10 -38 5 0 -4 -14 -6
-30 -3 -18 3 -30 0 -30 -7 0 -6 10 -11 23 -11 31 0 361 -59 422 -75 28 -8 81
-19 118 -25 37 -6 82 -17 100 -25 43 -20 396 -101 499 -115 46 -6 96 -19 111
-29 16 -10 63 -65 105 -123 42 -58 97 -131 122 -163 45 -58 45 -59 42 -131 -2
-61 1 -75 15 -82 10 -5 79 -26 153 -47 134 -37 487 -152 733 -238 112 -40 246
-78 412 -116 99 -22 333 -51 416 -50 69 1 94 6 141 28 l56 27 -29 20 c-45 29
-86 101 -99 173 -12 68 -9 106 16 182 l15 47 147 22 c141 21 219 43 234 65 5
6 8 4 8 -5 0 -12 2 -12 8 -2 5 7 23 14 40 15 18 1 32 7 32 12 0 6 4 4 9 -4 21
-32 805 164 1187 298 246 87 504 196 519 221 8 13 7 13 -58 -9 -32 -11 -57
-16 -57 -12 0 5 9 11 20 14 11 3 20 13 20 22 0 13 -6 16 -27 12 -27 -5 -28 -5
-7 11 24 20 39 53 21 47 -7 -3 -25 -7 -40 -9 -23 -4 -26 -2 -18 8 9 10 8 15
-3 19 -29 11 -4 43 55 70 32 15 59 31 59 37 0 5 5 10 11 10 5 0 7 -5 3 -12 -4
-7 -3 -8 5 -4 6 4 9 12 6 17 -4 5 -1 9 6 9 9 0 9 3 0 14 -8 10 -9 16 -1 21 5
3 10 11 10 17 0 7 -5 6 -15 -2 -11 -9 -22 -9 -52 1 l-38 13 50 9 c28 4 75 11
105 14 30 3 64 12 75 20 18 13 16 14 -35 12 -30 -2 -60 -7 -67 -12 -6 -4 -14
-4 -17 1 -3 5 -15 8 -28 6 -13 -1 -28 -3 -35 -3 -26 -2 -53 -45 -53 -84 l0
-40 -132 7 c-73 4 -140 7 -148 8 -8 1 -26 -2 -40 -6 -19 -5 -21 -5 -10 3 12 9
10 11 -10 12 -14 0 -52 2 -85 4 -41 2 -52 0 -35 -5 17 -6 2 -8 -47 -7 -40 1
-73 6 -73 10 0 5 -6 5 -12 1 -7 -5 -21 -9 -30 -9 -13 -1 -15 2 -7 11 6 8 16
12 22 11 6 -1 13 6 15 16 4 17 -27 25 -42 10 -16 -16 -86 -30 -131 -25 -33 3
-50 0 -56 -9 -6 -10 -9 -10 -9 -2 0 9 -7 10 -26 3 -19 -7 -31 -7 -40 1 -12 10
-13 8 -7 -7 6 -16 5 -17 -9 -6 -10 8 -19 9 -22 3 -4 -5 4 -13 16 -17 l23 -7
-25 -9 c-13 -5 -38 -6 -54 -2 -57 13 -78 13 -124 -2 -26 -7 -55 -11 -64 -8
-10 3 -18 1 -18 -5 0 -6 -7 -8 -15 -5 -8 4 -15 15 -15 26 0 10 4 17 8 14 10
-6 116 44 108 51 -3 3 -22 2 -42 -2 -29 -5 -34 -9 -23 -17 10 -7 6 -8 -14 -3
-19 4 -26 2 -22 -4 3 -7 0 -8 -9 -5 -9 4 -16 1 -16 -6 0 -8 -12 -11 -34 -8
-19 2 -33 1 -30 -3 2 -4 -1 -11 -7 -15 -8 -4 -7 -9 2 -15 9 -6 2 -9 -22 -9
-19 0 -41 6 -48 13 -11 9 -13 9 -7 0 4 -7 2 -13 -3 -13 -6 0 -11 5 -11 10 0 6
-7 10 -16 10 -23 0 -11 24 14 28 20 3 20 5 7 18 -8 9 -18 13 -22 11 -5 -3 -17
-1 -28 4 -17 6 -17 8 -2 8 24 1 21 28 -5 34 -19 5 -20 8 -7 23 9 12 10 15 2
10 -8 -4 -13 -2 -13 4 0 6 -4 8 -10 5 -5 -3 -10 3 -10 14 0 21 -7 25 -47 21
-13 -1 -23 4 -23 10 0 9 -7 8 -23 -3 -15 -10 -29 -12 -38 -6 -19 12 -32 11
-24 -1 3 -5 -1 -10 -9 -10 -25 0 -19 39 7 49 21 8 20 9 -10 15 -34 8 -52 34
-31 48 10 6 9 8 -4 8 -9 0 -21 7 -26 16 -8 14 -10 14 -15 1 -8 -21 -96 -35
-107 -16 -7 10 -11 10 -24 -1 -9 -7 -20 -10 -24 -6 -4 4 4 16 18 26 24 18 24
18 -35 5 -288 -62 -565 -134 -565 -146 0 -5 7 -9 15 -9 8 0 15 -4 15 -10 0 -5
-8 -10 -17 -10 -13 0 -15 -2 -5 -8 8 -6 -6 -13 -40 -20 -63 -14 -275 -42 -303
-41 -20 0 -20 0 0 8 16 7 13 9 -18 15 -36 7 -47 19 -27 31 18 11 -46 65 -77
65 -15 0 -38 3 -51 6 -21 6 -21 7 -5 21 10 8 12 11 4 7 -9 -4 -12 -3 -7 4 5 8
14 8 33 -1 21 -9 27 -9 31 1 6 19 22 14 22 -6 0 -10 13 -30 28 -45 30 -29 68
-35 105 -16 25 13 97 80 97 90 0 4 29 35 64 69 78 75 101 126 93 211 -10 111
-72 166 -158 140 -32 -10 -38 -15 -30 -25 8 -10 7 -17 -4 -26 -10 -9 -15 -9
-15 -1 0 6 -4 11 -8 11 -5 0 -8 -23 -8 -50 0 -75 -21 -87 -26 -15 -3 55 -1 59
31 87 27 24 31 32 20 39 -8 5 -21 9 -28 9 -8 0 -27 12 -43 27 -23 22 -30 24
-43 13 -8 -7 -18 -10 -22 -6 -3 3 0 6 8 7 8 0 6 4 -6 9 -33 14 -230 9 -390
-10z m630 -98 c-3 -3 -11 0 -18 7 -9 10 -8 11 6 5 10 -3 15 -9 12 -12z m-25
-29 c0 -7 11 -13 25 -13 33 0 65 -29 65 -58 0 -14 4 -21 11 -16 6 3 3 -5 -6
-20 -10 -14 -13 -26 -9 -26 5 0 1 -5 -8 -11 -10 -5 -19 -22 -19 -37 -1 -21 -2
-22 -6 -7 -3 11 -12 28 -20 37 -9 10 -13 27 -10 39 9 34 -2 50 -25 38 -11 -6
-22 -8 -25 -5 -4 3 -20 -3 -38 -14 -18 -11 -35 -17 -38 -13 -11 11 24 42 40
36 12 -5 14 -1 8 15 -7 25 12 30 47 11 23 -13 21 -5 -18 47 l-23 32 24 -12
c14 -6 25 -17 25 -23z m-157 -33 c-3 -11 0 -26 6 -34 9 -10 8 -16 -4 -26 -9
-7 -14 -19 -11 -25 2 -7 0 -17 -6 -23 -16 -16 -1 -60 22 -67 26 -8 40 1 40 26
0 10 7 19 15 19 8 0 12 6 9 14 -3 9 5 16 23 20 15 4 36 9 46 12 15 5 17 -2 17
-50 0 -59 15 -81 29 -44 10 23 10 23 10 -3 1 -16 -6 -29 -15 -33 -10 -4 -14
-12 -10 -22 5 -12 2 -15 -10 -10 -21 8 -65 -4 -58 -15 3 -5 10 -7 15 -4 5 3 6
-1 3 -8 -3 -8 -22 -18 -42 -22 -32 -6 -34 -9 -17 -16 18 -8 1 -8 -87 3 -9 1
-15 5 -12 9 2 4 -3 12 -11 19 -8 7 -15 19 -15 26 0 8 -4 14 -10 14 -5 0 -10
11 -10 25 0 15 6 25 14 25 11 0 13 10 9 39 -4 31 -1 43 17 61 15 15 20 29 16
44 -3 12 1 32 10 44 19 27 24 28 17 2z m-854 -61 c17 -6 31 -15 31 -19 0 -8
-67 15 -79 26 -8 8 16 4 48 -7z m-525 -22 c17 -13 18 -14 2 -20 -10 -4 -14 -3
-11 2 3 6 -3 14 -12 20 -10 6 -13 11 -7 11 5 0 18 -6 28 -13z m886 0 c16 -6
20 -11 11 -14 -11 -5 -11 -7 0 -15 15 -9 -39 0 -56 11 -5 3 -13 6 -17 7 -5 1
-9 2 -10 4 -2 1 -16 4 -33 6 -51 9 -41 15 21 13 32 -1 70 -6 84 -12z m-244
-13 c13 -3 24 -10 24 -14 0 -4 -18 -3 -40 2 -22 6 -40 15 -40 20 0 6 7 7 16 4
9 -3 27 -9 40 -12z m407 -10 c24 -7 21 -24 -5 -26 -68 -4 -106 -3 -102 4 3 4
-2 5 -10 2 -12 -4 -16 0 -16 16 0 21 3 22 58 16 31 -4 65 -9 75 -12z m-248
-38 c15 -14 19 -15 38 -1 12 8 26 15 32 15 5 0 3 -5 -5 -10 -12 -8 -8 -10 15
-11 17 -1 39 -1 50 0 27 3 155 -31 155 -41 0 -4 12 -8 27 -8 36 0 27 -6 -22
-14 -25 -4 -35 -3 -27 2 11 7 9 10 -7 15 -13 3 -19 1 -15 -5 4 -6 -13 -7 -47
-3 -30 4 -60 7 -66 8 -7 0 -13 3 -13 7 0 4 -15 6 -34 3 -19 -2 -38 2 -41 7 -5
7 -12 5 -21 -7 -7 -10 -14 -13 -14 -6 0 6 -9 10 -20 8 -11 -2 -26 3 -34 11
-19 19 -26 18 -26 -3 0 -15 -2 -16 -10 -3 -8 13 -10 13 -10 -2 0 -12 -5 -15
-16 -11 -8 3 -13 11 -10 19 3 7 0 14 -7 17 -6 2 -4 6 6 10 9 3 17 2 17 -3 0
-5 14 -7 31 -3 21 4 34 1 40 -8 7 -11 9 -11 9 4 0 10 -8 17 -20 17 -26 0 -71
21 -64 31 6 11 90 -15 109 -35z m405 -81 c7 -9 8 -15 2 -15 -5 0 -12 7 -16 15
-3 8 -4 15 -2 15 2 0 9 -7 16 -15z m-1039 -83 c-6 -2 -32 3 -58 12 -55 19 -53
19 -53 7 0 -12 51 -28 109 -34 29 -4 40 -2 30 4 -16 10 -8 12 15 3 9 -3 13
-11 10 -18 -3 -6 3 0 14 13 l20 25 138 -17 c77 -9 170 -19 208 -22 37 -3 76
-10 85 -15 16 -8 127 -33 271 -61 84 -17 104 -44 93 -126 -7 -52 -32 -83 -66
-83 -13 0 -32 -8 -43 -18 -11 -10 -26 -19 -34 -19 -18 0 -358 -178 -415 -217
-53 -35 -153 -133 -177 -171 -10 -16 -18 -41 -18 -54 l0 -24 -21 24 c-11 13
-33 38 -47 54 -39 43 -95 116 -110 143 -12 21 -6 30 70 123 135 164 140 173
134 246 -9 106 -45 163 -114 183 -19 5 -47 6 -63 3 -22 -4 -28 -10 -24 -27 2
-11 4 -23 4 -26 1 -3 6 2 12 10 8 13 9 12 7 -4 -2 -10 7 -25 18 -32 19 -13 22
-13 28 1 3 9 2 14 -3 11 -5 -3 -11 3 -14 14 -3 11 -2 22 2 24 8 6 45 -33 54
-56 3 -10 13 -18 21 -18 14 0 18 -7 30 -63 5 -19 3 -26 -4 -22 -5 3 -10 -1
-10 -10 0 -8 7 -18 15 -21 8 -4 15 -14 15 -23 0 -13 -2 -14 -9 -2 -13 20 -48
24 -55 6 -3 -8 -1 -15 4 -15 6 0 10 -4 10 -10 0 -13 -19 -9 -41 9 -10 8 -14
21 -11 34 3 12 1 18 -5 14 -6 -4 -8 3 -6 17 4 21 2 24 -24 21 -15 -2 -40 -7
-55 -11 -28 -6 -39 8 -17 21 5 4 15 18 20 32 7 19 15 24 29 20 21 -5 19 4 -7
35 -8 9 -16 25 -17 35 -2 12 -11 17 -26 15 -22 -2 -23 -2 -6 17 16 18 16 19
-11 25 -54 14 -98 56 -58 56 8 0 15 -4 15 -10 0 -5 5 -10 10 -10 6 0 10 6 10
14 0 11 13 10 66 -7 36 -12 61 -23 55 -25z m-206 28 c-3 -5 -11 -10 -16 -10
-6 0 -7 5 -4 10 3 6 11 10 16 10 6 0 7 -4 4 -10z m1488 -71 c-17 -11 -46 -21
-65 -23 -18 -2 -22 -1 -9 1 19 4 21 7 10 14 -11 7 -9 9 9 9 12 0 22 4 22 8 0
5 14 9 32 10 l32 1 -31 -20z m1054 -5 c-3 -3 -12 -4 -19 -1 -8 3 -5 6 6 6 11
1 17 -2 13 -5z m-2403 -34 c5 -5 -1 -28 -13 -53 -12 -25 -20 -50 -19 -57 2 -7
-2 -14 -9 -17 -7 -3 -10 5 -9 21 2 14 0 26 -5 26 -4 0 -9 10 -11 23 -2 16 -9
21 -23 19 -17 -3 -16 1 9 27 29 30 55 34 80 11z m1053 14 c-3 -3 -12 -4 -19
-1 -8 3 -5 6 6 6 11 1 17 -2 13 -5z m56 -41 c13 -8 7 -51 -8 -57 -9 -3 -38 -1
-66 5 -37 8 -53 17 -59 32 -4 12 -5 26 -3 30 5 8 120 0 136 -10z m1119 -11
c-13 -2 -19 -8 -16 -14 5 -8 -5 -9 -32 -5 -21 4 -54 7 -72 7 -22 0 -32 4 -30
13 6 15 137 26 157 12 12 -8 10 -11 -7 -13z m-3595 12 c-3 -3 -12 -4 -19 -1
-8 3 -5 6 6 6 11 1 17 -2 13 -5z m3058 -44 c-11 -5 -27 -9 -35 -9 -9 0 -8 4 5
9 11 5 27 9 35 9 9 0 8 -4 -5 -9z m-500 -33 c0 -17 -6 -24 -22 -25 -25 -2 -30
17 -11 36 19 19 33 14 33 -11z m-1290 -16 c3 -5 0 -13 -5 -16 -8 -5 -6 -13 6
-26 16 -18 16 -19 -7 -20 -13 0 -38 -2 -56 -5 -31 -4 -31 -3 -22 29 5 17 9 33
9 35 0 1 9 -2 19 -8 26 -13 31 -13 31 5 0 17 16 20 25 6z m1234 -32 c-16 -10
-23 -4 -14 10 3 6 11 8 17 5 6 -4 5 -9 -3 -15z m-29 7 c0 -3 -4 -8 -10 -11 -5
-3 -10 -1 -10 4 0 6 5 11 10 11 6 0 10 -2 10 -4z m1535 -6 c3 -5 -1 -10 -9
-10 -8 0 -18 5 -21 10 -3 6 1 10 9 10 8 0 18 -4 21 -10z m697 -22 c-7 -7 -12
-8 -12 -2 0 14 12 26 19 19 2 -3 -1 -11 -7 -17z m781 15 c9 -15 -28 -42 -43
-32 -12 7 -11 10 7 15 13 4 20 10 17 15 -3 5 -1 9 5 9 5 0 12 -3 14 -7z
m-4056 -16 c-2 -6 8 -21 22 -33 32 -28 21 -43 -15 -19 -14 9 -35 15 -45 12
-10 -3 -16 -1 -13 4 3 5 -2 12 -10 15 -21 8 -20 22 1 26 39 7 64 5 60 -5z
m959 4 c-8 -12 -46 -21 -46 -11 0 5 8 11 18 13 29 8 33 7 28 -2z m2439 -11
c-3 -5 -1 -10 4 -10 6 0 11 5 11 10 0 6 15 4 36 -5 20 -8 39 -13 43 -11 15 10
111 15 106 6 -3 -6 6 -10 20 -10 15 0 24 -4 20 -10 -3 -6 4 -10 17 -10 27 0
100 24 94 31 -8 8 159 -3 167 -11 5 -4 -11 -11 -35 -15 -83 -13 -204 -36 -263
-52 -33 -9 -105 -19 -160 -22 -110 -8 -127 -11 -137 -26 -5 -6 -11 -6 -18 1
-12 12 -60 7 -60 -6 0 -4 -19 -12 -42 -19 -24 -7 -55 -16 -69 -20 -30 -9 -60
1 -40 14 7 4 18 4 26 1 8 -3 15 -1 15 4 0 6 -10 10 -23 10 -14 0 -24 6 -24 14
0 9 10 13 31 10 52 -5 155 17 149 33 -3 7 -16 13 -30 13 -40 0 -18 16 56 39
38 12 75 28 81 36 14 17 35 21 25 5z m-3444 -48 c8 2 13 -2 12 -9 -2 -6 10
-22 25 -34 15 -12 19 -19 10 -16 -12 4 -18 1 -18 -9 0 -12 6 -15 25 -10 31 8
34 -11 3 -23 -14 -5 -26 -5 -30 2 -4 7 -15 5 -31 -6 -19 -12 -27 -13 -30 -4
-3 8 -12 3 -25 -13 -23 -29 -22 -36 5 -22 24 13 50 0 31 -15 -17 -14 -68 -22
-68 -12 0 5 -12 9 -28 9 -26 0 -96 51 -76 56 5 1 22 5 37 9 24 5 27 8 17 20
-10 12 -9 15 4 15 22 0 20 17 -3 30 -14 7 -28 7 -47 0 -36 -14 -45 -3 -16 20
12 10 22 21 22 25 0 4 -7 2 -15 -5 -12 -10 -15 -10 -15 3 0 8 11 17 25 19 17
4 25 1 25 -8 0 -7 8 -18 19 -23 14 -8 26 -5 49 13 18 13 28 27 24 32 -4 5 7
-4 24 -19 17 -15 37 -27 45 -25z m3254 40 c18 -13 15 -32 -4 -32 -11 0 -23 -4
-26 -10 -8 -13 -45 -13 -45 0 0 5 -6 7 -14 4 -29 -11 -24 14 5 27 24 9 36 10
50 1 26 -16 34 -15 19 3 -13 15 -3 20 15 7z m57 -14 c-9 -9 -15 -9 -24 0 -9 9
-7 12 12 12 19 0 21 -3 12 -12z m717 8 c-2 -2 -15 -9 -29 -16 -23 -12 -24 -12
-11 3 7 10 20 17 29 17 8 0 13 -2 11 -4z m-1219 -18 c0 -6 -3 -8 -6 -5 -4 3
-16 2 -28 -4 -20 -10 -20 -10 -2 5 24 19 36 20 36 4z m-1864 -17 c-3 -5 -15
-11 -26 -14 -17 -4 -19 -3 -9 9 12 15 44 20 35 5z m1801 -5 c0 -8 -6 -12 -15
-9 -11 5 -11 7 0 14 7 5 13 9 14 9 0 0 1 -6 1 -14z m-2657 -26 c0 -5 -5 -10
-11 -10 -5 0 -7 5 -4 10 3 6 8 10 11 10 2 0 4 -4 4 -10z m775 1 c-3 -6 -14 -9
-25 -8 -24 2 -15 17 11 17 11 0 18 -4 14 -9z m-721 -16 c-4 -8 -10 -15 -15
-15 -5 0 -9 7 -9 15 0 8 7 15 15 15 9 0 12 -6 9 -15z m3019 -2 c-7 -2 -19 -2
-25 0 -7 3 -2 5 12 5 14 0 19 -2 13 -5z m-3820 -10 c-7 -2 -21 -2 -30 0 -10 3
-4 5 12 5 17 0 24 -2 18 -5z m497 -17 c0 -7 -50 -13 -55 -7 -2 4 10 8 26 9 16
1 29 1 29 -2z m1983 -13 c-7 -2 -19 -2 -25 0 -7 3 -2 5 12 5 14 0 19 -2 13 -5z
m1265 -7 c-7 -8 -17 -12 -22 -9 -4 3 -2 9 5 14 22 13 31 11 17 -5z m-678 -10
c0 -2 -9 -6 -20 -9 -11 -3 -20 -1 -20 4 0 5 9 9 20 9 11 0 20 -2 20 -4z m-605
-16 c19 -8 19 -9 -3 -9 -13 -1 -20 -5 -17 -11 10 -16 -18 -11 -40 7 -16 13
-17 15 -2 10 9 -4 17 -2 17 3 0 12 18 12 45 0z m660 -5 c0 -5 -15 -13 -33 -19
-18 -6 -30 -15 -25 -20 4 -5 1 -7 -8 -3 -18 6 -22 -23 -5 -35 12 -8 -50 -19
-84 -14 -14 2 -34 4 -46 5 -12 0 -21 8 -21 17 0 19 72 57 95 50 9 -3 35 3 56
13 39 19 71 21 71 6z m585 5 c8 -5 11 -10 5 -10 -5 0 -17 5 -25 10 -8 5 -10
10 -5 10 6 0 17 -5 25 -10z m-3015 -19 c3 -5 2 -12 -3 -15 -5 -3 -9 1 -9 9 0
17 3 19 12 6z m2656 -18 c13 -16 12 -17 -3 -4 -10 7 -18 15 -18 17 0 8 8 3 21
-13z m-894 -9 c-3 -3 -12 -4 -19 -1 -8 3 -5 6 6 6 11 1 17 -2 13 -5z m623 -34
c6 -11 8 -20 6 -20 -3 0 -10 9 -16 20 -6 11 -8 20 -6 20 3 0 10 -9 16 -20z
m-2415 0 c-3 -5 -11 -10 -16 -10 -6 0 -7 5 -4 10 3 6 11 10 16 10 6 0 7 -4 4
-10z m1733 3 c-16 -2 -40 -2 -55 0 -16 2 -3 4 27 4 30 0 43 -2 28 -4z m764 -8
c2 3 5 -2 5 -10 0 -19 0 -19 -23 7 -12 14 -13 18 -3 10 9 -6 18 -10 21 -7z
m38 11 c0 -3 -4 -8 -10 -11 -5 -3 -10 -1 -10 4 0 6 5 11 10 11 6 0 10 -2 10
-4z m47 -12 c-3 -3 -12 -4 -19 -1 -8 3 -5 6 6 6 11 1 17 -2 13 -5z m-2627 -14
c-8 -5 -22 -9 -30 -9 -10 0 -8 3 5 9 27 12 43 12 25 0z m2580 -20 c0 -5 -7
-10 -16 -10 -8 0 -12 5 -9 10 3 6 10 10 16 10 5 0 9 -4 9 -10z m-2587 -121
c20 -27 33 -49 27 -49 -15 0 -90 73 -90 87 0 26 26 11 63 -38z m1487 18 c-22
-10 -18 -12 45 -17 43 -4 56 -8 35 -9 -77 -6 -130 -6 -130 2 0 4 5 7 11 7 5 0
8 4 5 9 -7 11 10 19 39 20 17 0 16 -2 -5 -12z m1720 -47 c0 -13 -28 -25 -38
-16 -3 4 0 11 8 16 20 13 30 12 30 0z m-1894 -37 c-3 -19 -10 -21 -91 -28
l-50 -5 60 14 c32 7 61 18 63 25 6 18 20 13 18 -6z m1804 7 c0 -5 -4 -10 -10
-10 -5 0 -10 5 -10 10 0 6 5 10 10 10 6 0 10 -4 10 -10z m-60 -9 c0 -14 -18
-23 -30 -16 -6 4 -8 11 -5 16 8 12 35 12 35 0z m-60 -15 c0 -3 -4 -8 -10 -11
-5 -3 -10 -1 -10 4 0 6 5 11 10 11 6 0 10 -2 10 -4z m-50 -16 c0 -5 -4 -10
-10 -10 -5 0 -10 5 -10 10 0 6 5 10 10 10 6 0 10 -4 10 -10z m-40 -10 c0 -5
-4 -10 -10 -10 -5 0 -10 5 -10 10 0 6 5 10 10 10 6 0 10 -4 10 -10z m-50 -10
c0 -5 -4 -10 -10 -10 -5 0 -10 5 -10 10 0 6 5 10 10 10 6 0 10 -4 10 -10z
m-420 -23 c0 -19 -6 -23 -37 -25 -21 -2 -40 3 -45 10 -6 8 -7 4 -3 -12 9 -31
-10 -16 -19 16 -6 19 -2 21 36 22 23 1 44 4 46 7 12 12 22 3 22 -18z m370 14
c0 -12 -20 -25 -27 -18 -7 7 6 27 18 27 5 0 9 -4 9 -9z m-1913 -26 c0 -15
-123 -72 -134 -62 -6 7 15 37 25 35 26 -3 52 4 47 12 -3 5 0 7 7 5 8 -3 22 1
33 9 11 9 20 16 21 16 0 0 1 -7 1 -15z m1843 5 c0 -5 -7 -10 -15 -10 -8 0 -15
5 -15 10 0 6 7 10 15 10 8 0 15 -4 15 -10z m240 -10 c0 -5 -4 -10 -10 -10 -5
0 -10 5 -10 10 0 6 5 10 10 10 6 0 10 -4 10 -10z m-325 -10 c-3 -5 -13 -10
-21 -10 -8 0 -14 5 -14 10 0 6 9 10 21 10 11 0 17 -4 14 -10z m245 -10 c0 -5
-4 -10 -10 -10 -5 0 -10 5 -10 10 0 6 5 10 10 10 6 0 10 -4 10 -10z m-2010
-25 c0 -8 -52 -26 -58 -20 -3 2 6 9 19 14 28 11 39 13 39 6z m-176 -44 c3 -5
-1 -11 -9 -15 -15 -6 -29 7 -18 18 9 9 21 8 27 -3z m-219 -27 c116 -20 151
-36 64 -29 -70 6 -155 30 -166 47 -3 7 -1 8 5 4 6 -4 50 -14 97 -22z m125 -84
c0 -5 -2 -10 -4 -10 -3 0 -8 5 -11 10 -3 6 -1 10 4 10 6 0 11 -4 11 -10z m140
-10 c0 -5 -2 -10 -4 -10 -3 0 -8 5 -11 10 -3 6 -1 10 4 10 6 0 11 -4 11 -10z
m40 0 c0 -5 -2 -10 -4 -10 -3 0 -8 5 -11 10 -3 6 -1 10 4 10 6 0 11 -4 11 -10z
m55 0 c3 -5 2 -10 -4 -10 -5 0 -13 5 -16 10 -3 6 -2 10 4 10 5 0 13 -4 16 -10z
m-335 -35 c10 -12 9 -16 -4 -21 -16 -6 -46 11 -46 27 0 15 37 10 50 -6z m6
-50 c17 -13 16 -14 -16 -3 -43 14 -49 18 -24 18 11 0 29 -7 40 -15z m140 -24
c27 -5 123 -14 214 -20 191 -13 310 -30 310 -43 0 -6 -6 -8 -13 -5 -8 3 -20 1
-28 -4 -21 -13 24 -12 54 2 26 12 234 -4 249 -19 5 -5 -6 -8 -24 -8 -18 1 -36
5 -39 9 -3 5 -9 1 -12 -8 -4 -9 -3 -13 2 -10 5 3 12 2 15 -3 3 -5 -14 -8 -37
-6 -59 2 -65 4 -42 14 19 8 19 9 -2 9 -13 1 -23 -4 -23 -10 0 -7 -14 -9 -37
-5 -21 3 -72 9 -113 12 -92 7 -112 9 -175 18 -27 3 -70 8 -93 10 -45 4 -196
32 -266 48 -29 7 -36 12 -25 19 18 11 25 11 85 0z m825 -28 c1 -17 2 -17 6 0
2 9 8 17 13 17 5 0 6 -7 3 -17 -4 -11 -3 -14 5 -9 7 4 12 2 12 -3 0 -6 3 -10
8 -10 19 3 33 -2 27 -11 -6 -10 -143 -5 -270 11 -165 20 -167 24 -15 29 80 3
160 7 178 8 24 2 32 -2 33 -15z m129 -243 c0 -5 -2 -10 -4 -10 -3 0 -8 5 -11
10 -3 6 -1 10 4 10 6 0 11 -4 11 -10z m-263 -16 c-3 -3 -12 -4 -19 -1 -8 3 -5
6 6 6 11 1 17 -2 13 -5z m226 -31 c-7 -2 -19 -2 -25 0 -7 3 -2 5 12 5 14 0 19
-2 13 -5z m42 -3 c3 -5 -1 -10 -9 -10 -9 0 -16 5 -16 10 0 6 4 10 9 10 6 0 13
-4 16 -10z"/>
<path d="M2792 2535 c0 -16 2 -22 5 -12 2 9 2 23 0 30 -3 6 -5 -1 -5 -18z"/>
<path d="M2908 2538 c7 -7 12 -20 12 -31 0 -10 5 -15 10 -12 6 3 10 17 10 31
0 18 -5 24 -22 24 -17 0 -19 -3 -10 -12z"/>
<path d="M2955 2520 c-7 -12 2 -30 16 -30 12 0 12 27 0 35 -5 3 -12 1 -16 -5z"/>
<path d="M2934 2461 c3 -5 15 -7 26 -4 28 7 25 13 -6 13 -14 0 -23 -4 -20 -9z"/>
<path d="M2866 2414 c-4 -11 -1 -14 11 -12 9 2 18 9 21 16 6 18 -25 15 -32 -4z"/>
<path d="M2397 2513 c23 -17 44 -16 37 1 -3 8 -16 13 -30 12 -22 -1 -23 -2 -7
-13z"/>
<path d="M5028 2058 c5 -5 16 -8 23 -6 8 3 3 7 -10 11 -17 4 -21 3 -13 -5z"/>
<path d="M1482 2074 c-27 -19 -28 -34 -2 -34 11 0 20 -6 20 -14 0 -8 7 -22 17
-31 25 -26 37 4 18 48 -19 45 -27 50 -53 31z"/>
<path d="M1433 1955 c-9 -10 -9 -16 -2 -20 14 -9 22 0 17 18 -2 13 -5 13 -15
2z"/>
<path d="M2158 1213 c7 -3 16 -2 19 1 4 3 -2 6 -13 5 -11 0 -14 -3 -6 -6z"/>
<path d="M2764 1146 c16 -9 31 -14 34 -11 8 8 0 13 -33 20 l-30 7 29 -16z"/>
<path d="M2880 2840 c0 -11 20 -18 76 -24 27 -3 40 -3 29 0 -11 3 -39 11 -62
19 -24 8 -43 10 -43 5z"/>
<path d="M995 2659 c-47 -7 -76 -29 -74 -53 0 -6 3 -6 5 1 4 9 13 9 32 2 18
-7 28 -7 30 0 2 5 9 8 15 6 7 -3 35 9 62 25 l50 30 -35 -1 c-19 -1 -57 -5 -85
-10z"/>
<path d="M5003 2593 c9 -2 25 -2 35 0 9 3 1 5 -18 5 -19 0 -27 -2 -17 -5z"/>
<path d="M5063 2573 c9 -2 23 -2 30 0 6 3 -1 5 -18 5 -16 0 -22 -2 -12 -5z"/>
<path d="M5485 2560 c-17 -7 -16 -9 10 -9 17 0 37 4 45 9 12 8 10 10 -10 9
-14 0 -34 -4 -45 -9z"/>
<path d="M4505 2530 c-4 -7 3 -9 20 -6 37 7 44 16 12 16 -14 0 -29 -5 -32 -10z"/>
<path d="M4216 2504 c-5 -20 -12 -25 -26 -21 -11 3 -38 -3 -60 -14 -43 -21
-79 -26 -43 -6 36 20 14 39 -36 31 -23 -4 -44 -10 -47 -15 -2 -4 -12 -5 -21
-2 -11 4 -14 3 -9 -5 5 -8 -3 -12 -26 -12 -27 -1 -30 -2 -15 -11 9 -5 22 -7
27 -4 5 3 18 1 29 -4 16 -9 23 -6 41 17 16 21 19 22 10 5 -6 -13 -7 -24 -3
-24 46 -7 63 -6 63 2 0 5 7 9 16 9 8 0 12 -4 9 -10 -3 -5 -1 -10 4 -10 6 0 11
4 11 9 0 4 11 6 24 4 13 -3 27 1 31 8 6 9 3 11 -8 6 -9 -3 -18 0 -21 9 -4 12
-1 14 14 9 26 -8 88 40 64 49 -22 8 -21 9 -28 -20z m-201 -54 c-3 -5 -13 -6
-21 -3 -12 4 -13 8 -3 14 15 9 32 2 24 -11z"/>
<path d="M4435 2520 c-3 -6 1 -7 9 -4 18 7 21 14 7 14 -6 0 -13 -4 -16 -10z"/>
<path d="M4185 2510 c-3 -5 -1 -10 4 -10 6 0 11 5 11 10 0 6 -2 10 -4 10 -3 0
-8 -4 -11 -10z"/>
<path d="M5705 2470 c-15 -7 -10 -9 23 -9 23 -1 42 4 42 9 0 12 -37 12 -65 0z"/>
<path d="M4536 2445 c4 -8 11 -15 16 -15 6 0 5 6 -2 15 -7 8 -14 15 -16 15 -2
0 -1 -7 2 -15z"/>
<path d="M4575 2450 c3 -5 8 -10 11 -10 2 0 4 5 4 10 0 6 -5 10 -11 10 -5 0
-7 -4 -4 -10z"/>
<path d="M5236 2422 c-3 -6 -1 -14 5 -17 14 -9 20 -2 10 14 -6 8 -11 9 -15 3z"/>
<path d="M4124 2384 c4 -10 0 -21 -10 -28 -13 -10 -9 -11 22 -8 31 4 35 6 19
12 -18 7 -18 8 5 12 23 5 23 5 -5 7 -26 2 -27 3 -10 11 19 8 19 9 -4 9 -17 1
-22 -3 -17 -15z"/>
<path d="M5275 2393 c-16 -1 -55 -6 -85 -9 -41 -5 -50 -8 -35 -15 19 -7 19 -8
-1 -8 -12 -1 -29 -12 -37 -25 -15 -22 -15 -25 0 -30 9 -4 61 -4 116 0 76 5
104 11 118 25 9 9 20 15 22 12 3 -3 4 3 3 13 -2 10 -14 21 -27 25 -22 6 -20 7
11 11 31 4 30 5 -10 5 -25 0 -58 -2 -75 -4z m8 -20 c-13 -2 -33 -2 -45 0 -13
2 -3 4 22 4 25 0 35 -2 23 -4z m38 -33 c-19 -16 -38 -20 -102 -20 -64 0 -77 3
-73 14 7 19 30 23 124 24 l75 1 -24 -19z"/>
<path d="M5906 2375 c4 -8 10 -15 14 -15 4 0 10 7 14 15 4 10 -1 15 -14 15
-13 0 -18 -5 -14 -15z"/>
<path d="M366 2367 c3 -10 9 -15 12 -12 3 3 0 11 -7 18 -10 9 -11 8 -5 -6z"/>
<path d="M5860 2360 c0 -5 4 -10 9 -10 6 0 13 5 16 10 3 6 -1 10 -9 10 -9 0
-16 -4 -16 -10z"/>
<path d="M5790 2350 c0 -5 7 -7 15 -4 8 4 15 8 15 10 0 2 -7 4 -15 4 -8 0 -15
-4 -15 -10z"/>
<path d="M5638 2343 c7 -3 16 -2 19 1 4 3 -2 6 -13 5 -11 0 -14 -3 -6 -6z"/>
<path d="M5677 2327 c4 -6 -4 -8 -19 -4 -19 5 -28 2 -33 -10 -3 -10 -1 -19 4
-21 13 -4 14 -22 2 -22 -5 0 -13 9 -16 20 -3 11 -13 20 -22 20 -9 0 -13 -6 -9
-15 4 -10 -1 -15 -15 -15 -19 0 -19 -1 -4 -16 13 -14 18 -14 32 -2 14 11 16
11 11 -3 -4 -9 -1 -16 8 -16 7 0 10 5 7 10 -4 6 1 8 11 4 10 -4 15 -3 11 3 -3
6 0 10 9 10 8 0 23 3 33 7 16 6 17 5 3 -12 -14 -17 -13 -17 10 -9 14 4 59 8
102 9 42 0 71 4 65 8 -7 5 -3 6 9 3 14 -4 27 1 39 14 l19 21 -64 -2 c-36 0
-73 2 -82 6 -11 4 -18 3 -18 -5 0 -6 5 -8 10 -5 6 3 10 -1 10 -9 0 -12 -14
-14 -70 -13 -65 2 -67 5 -17 21 25 8 21 23 -8 28 -15 3 -22 1 -18 -5z"/>
<path d="M4060 2320 c8 -5 26 -10 40 -10 20 0 22 2 10 10 -8 5 -26 10 -40 10
-20 0 -22 -2 -10 -10z"/>
<path d="M4775 2296 c-33 -13 -69 -27 -80 -31 -11 -5 -24 -7 -28 -6 -4 1 -18
-5 -30 -14 -12 -8 -29 -15 -39 -15 -10 0 -18 -5 -18 -11 0 -6 -7 -9 -15 -6 -8
4 -17 2 -20 -3 -4 -6 -18 -10 -32 -10 -32 0 -28 -5 10 -14 19 -4 26 -3 22 4
-5 9 23 15 48 11 5 -1 6 3 3 8 -3 5 11 12 32 16 20 3 46 12 57 19 11 7 43 18
70 26 28 7 55 16 60 19 6 3 15 6 22 7 6 1 19 7 30 13 36 21 -29 12 -92 -13z"/>
<path d="M5030 2270 c-25 -16 -49 -32 -55 -37 -5 -5 -19 -13 -30 -18 -14 -6
12 -11 90 -16 115 -8 178 -2 120 12 -16 4 -64 8 -105 9 -41 2 -64 5 -50 7 14
3 32 11 41 19 9 8 19 11 22 7 4 -3 7 -2 7 4 0 22 34 23 72 3 22 -11 37 -16 33
-10 -3 6 0 7 9 4 9 -3 16 -10 16 -14 0 -13 32 -5 40 11 6 10 3 15 -8 16 -9 0
-43 8 -75 17 -73 20 -73 20 -127 -14z"/>
<path d="M3127 2263 c-4 -3 -24 -10 -44 -14 l-38 -8 43 3 c43 4 60 11 50 21
-2 3 -8 2 -11 -2z"/>
<path d="M5875 2250 c-16 -7 -17 -9 -3 -9 9 -1 20 4 23 9 7 11 7 11 -20 0z"/>
<path d="M4654 2195 c-4 -10 -13 -13 -25 -10 -11 4 -19 2 -19 -4 0 -5 -9 -13
-20 -16 -33 -10 -23 -20 19 -20 22 0 34 3 28 7 -8 5 -5 8 8 8 11 0 29 7 40 16
17 13 18 16 5 24 -21 14 -30 12 -36 -5z"/>
<path d="M5808 2203 c7 -3 16 -2 19 1 4 3 -2 6 -13 5 -11 0 -14 -3 -6 -6z"/>
<path d="M698 2193 c6 -2 9 -10 6 -15 -4 -7 -2 -8 5 -4 13 9 5 26 -12 25 -9 0
-8 -2 1 -6z"/>
<path d="M139 2133 c7 -25 13 -28 56 -31 32 -3 51 1 56 10 6 9 11 10 17 2 14
-20 42 -25 42 -6 1 16 1 16 11 0 12 -21 62 -21 54 0 -3 8 -5 21 -5 31 0 14
-10 18 -56 20 -46 2 -56 -1 -51 -13 3 -8 -1 -17 -9 -20 -23 -9 -34 -7 -34 5 0
5 5 7 10 4 6 -3 10 1 10 9 0 13 -12 16 -54 16 -54 0 -54 0 -47 -27z m66 -3 c3
-5 1 -10 -4 -10 -6 0 -11 5 -11 10 0 6 2 10 4 10 3 0 8 -4 11 -10z m95 -6 c0
-8 -4 -12 -10 -9 -5 3 -10 10 -10 16 0 5 5 9 10 9 6 0 10 -7 10 -16z m37 -6
c-3 -8 -6 -5 -6 6 -1 11 2 17 5 13 3 -3 4 -12 1 -19z"/>
<path d="M760 2140 c0 -6 7 -10 15 -10 8 0 15 2 15 4 0 2 -7 6 -15 10 -8 3
-15 1 -15 -4z"/>
<path d="M5488 2133 c12 -2 32 -2 45 0 12 2 2 4 -23 4 -25 0 -35 -2 -22 -4z"/>
<path d="M870 2100 c0 -5 10 -10 23 -10 18 0 19 2 7 10 -19 13 -30 13 -30 0z"/>
<path d="M125 2040 c-3 -5 -1 -10 4 -10 6 0 11 5 11 10 0 6 -2 10 -4 10 -3 0
-8 -4 -11 -10z"/>
<path d="M5602 2023 c-6 -2 -10 -9 -7 -13 7 -11 35 -2 35 11 0 10 -8 10 -28 2z"/>
<path d="M3606 1205 c-4 -14 -13 -25 -20 -25 -9 0 -15 -15 -18 -47 -4 -51 19
-92 50 -91 9 0 25 -3 35 -7 14 -6 17 -2 17 19 0 19 5 26 20 26 11 0 20 7 20
15 0 9 -9 15 -25 15 -20 0 -24 4 -21 23 3 12 5 29 6 37 1 9 5 6 10 -7 12 -31
40 -30 40 1 0 29 -25 54 -34 34 -3 -7 -4 -3 -2 10 5 26 -19 31 -29 5 -6 -17
-7 -17 -19 0 -18 23 -23 22 -30 -8z"/>
</g>
</svg>
